<svg width="84" height="84" viewBox="0 0 84 84" fill="none" xmlns="http://www.w3.org/2000/svg">
<circle cx="42" cy="42" r="38.5" fill="#CBE8F9" stroke="black" stroke-width="6.99999"/>
<path d="M41.9999 50.75C45.8659 50.75 48.9999 47.616 48.9999 43.75C48.9999 39.884 45.8659 36.75 41.9999 36.75C38.1339 36.75 34.9999 39.884 34.9999 43.75C34.9999 47.616 38.1339 50.75 41.9999 50.75Z" fill="black"/>
<path d="M61.2501 29.7501H54.7969C54.4688 29.7501 54.0619 29.5379 53.7447 29.2032L50.9076 24.7254C50.8627 24.6543 50.8126 24.5867 50.7577 24.523C49.7777 23.3801 48.4532 22.7501 47.0313 22.7501H36.9688C35.5469 22.7501 34.2224 23.3801 33.2424 24.523C33.1875 24.5867 33.1374 24.6543 33.0926 24.7254L30.2554 29.2097C30.0126 29.4744 29.6713 29.7566 29.3126 29.7566V28.8816C29.3126 28.4175 29.1282 27.9724 28.8 27.6442C28.4718 27.316 28.0267 27.1316 27.5626 27.1316H24.9376C24.4734 27.1316 24.0283 27.316 23.7001 27.6442C23.3719 27.9724 23.1876 28.4175 23.1876 28.8816V29.7566H22.7501C21.3581 29.7581 20.0236 30.3117 19.0393 31.2959C18.0551 32.2802 17.5015 33.6147 17.5001 35.0066V56.0001C17.5015 57.392 18.0551 58.7265 19.0393 59.7108C20.0236 60.695 21.3581 61.2486 22.7501 61.2501H61.2501C62.642 61.2486 63.9765 60.695 64.9608 59.7108C65.945 58.7265 66.4986 57.392 66.5001 56.0001V35.0001C66.4986 33.6081 65.945 32.2736 64.9608 31.2893C63.9765 30.3051 62.642 29.7515 61.2501 29.7501ZM42.0001 54.2501C39.9234 54.2501 37.8933 53.6342 36.1666 52.4805C34.4399 51.3267 33.094 49.6869 32.2993 47.7682C31.5046 45.8496 31.2967 43.7384 31.7018 41.7016C32.107 39.6648 33.107 37.7939 34.5754 36.3254C36.0439 34.857 37.9148 33.857 39.9516 33.4518C41.9884 33.0467 44.0996 33.2546 46.0182 34.0493C47.9369 34.844 49.5767 36.1899 50.7305 37.9166C51.8842 39.6433 52.5001 41.6734 52.5001 43.7501C52.4969 46.5339 51.3896 49.2027 49.4212 51.1712C47.4527 53.1396 44.7839 54.2469 42.0001 54.2501Z" fill="black"/>
</svg>
