<svg width="18" height="18" viewBox="0 0 18 18" fill="none" xmlns="http://www.w3.org/2000/svg">
<path d="M8.16669 7.33335H9.83335C11.0117 7.33335 11.6009 7.33335 11.9667 7.70002C12.3334 8.06585 12.3334 8.65502 12.3334 9.83335V14.8334C12.3334 13.655 12.3334 13.0659 12.7 12.7C13.065 12.3334 13.6542 12.3334 14.8334 12.3334C16.0125 12.3334 16.6009 12.3334 16.9667 12.7C17.3334 13.0659 17.3334 13.655 17.3334 14.8334V17.3334H0.666687C0.666687 16.155 0.666687 15.5659 1.03335 15.2C1.39835 14.8334 1.98752 14.8334 3.16669 14.8334C4.34585 14.8334 4.93419 14.8334 5.30002 15.2C5.66669 15.565 5.66669 16.1542 5.66669 17.3334V9.83335C5.66669 8.65502 5.66669 8.06585 6.03335 7.70002C6.39835 7.33335 6.98752 7.33335 8.16669 7.33335ZM8.28835 1.51919C8.60502 0.95002 8.76335 0.666687 9.00002 0.666687C9.23669 0.666687 9.39502 0.95002 9.71169 1.51919L9.79335 1.66585C9.88335 1.82752 9.92835 1.90752 9.99835 1.96085C10.0692 2.01419 10.1567 2.03419 10.3317 2.07335L10.49 2.11002C11.105 2.24919 11.4125 2.31835 11.4859 2.55335C11.5592 2.78835 11.3492 3.03419 10.93 3.52419L10.8217 3.65085C10.7025 3.79002 10.6425 3.85919 10.6159 3.94585C10.5892 4.03252 10.5984 4.12502 10.6159 4.31085L10.6325 4.48002C10.6959 5.13419 10.7275 5.46169 10.5367 5.60669C10.345 5.75252 10.0567 5.61919 9.48085 5.35419L9.33252 5.28585C9.16835 5.21085 9.08669 5.17252 9.00002 5.17252C8.91335 5.17252 8.83169 5.21085 8.66752 5.28585L8.51919 5.35419C7.94335 5.61919 7.65502 5.75252 7.46335 5.60669C7.27169 5.46169 7.30419 5.13419 7.36752 4.48002L7.38419 4.31085C7.40169 4.12502 7.41085 4.03252 7.38419 3.94585C7.35752 3.85919 7.29752 3.79002 7.17835 3.65085L7.07002 3.52419C6.65085 3.03419 6.44085 2.78919 6.51419 2.55335C6.58752 2.31835 6.89502 2.24919 7.51002 2.11002L7.66835 2.07335C7.84335 2.03419 7.93085 2.01502 8.00169 1.96085C8.07169 1.90752 8.11669 1.82752 8.20669 1.66585L8.28835 1.51919Z" fill="black"/>
</svg>
